<svg id="Group_1258" data-name="Group 1258" xmlns="http://www.w3.org/2000/svg" width="27.479" height="27.48" viewBox="0 0 27.479 27.48">
  <path id="Path_1801" data-name="Path 1801" d="M224.461,139.577c3.669,0,4.1.014,5.553.08a7.612,7.612,0,0,1,2.551.474,4.541,4.541,0,0,1,2.607,2.607,7.611,7.611,0,0,1,.474,2.551c.066,1.45.08,1.884.08,5.553s-.014,4.1-.08,5.552a7.614,7.614,0,0,1-.474,2.552,4.541,4.541,0,0,1-2.607,2.607,7.586,7.586,0,0,1-2.551.473c-1.45.066-1.883.08-5.553.08s-4.1-.014-5.551-.08a7.6,7.6,0,0,1-2.552-.473,4.551,4.551,0,0,1-2.607-2.607,7.589,7.589,0,0,1-.473-2.552c-.066-1.448-.08-1.883-.08-5.552s.014-4.1.08-5.553a7.587,7.587,0,0,1,.473-2.551,4.551,4.551,0,0,1,2.607-2.607,7.622,7.622,0,0,1,2.552-.474c1.448-.066,1.883-.08,5.551-.08m0-2.476c-3.732,0-4.2.017-5.665.083a10.1,10.1,0,0,0-3.335.639,7.026,7.026,0,0,0-4.017,4.019,10.06,10.06,0,0,0-.639,3.335c-.067,1.466-.083,1.933-.083,5.665s.016,4.2.083,5.665a10.06,10.06,0,0,0,.639,3.335,7.026,7.026,0,0,0,4.017,4.019,10.136,10.136,0,0,0,3.335.639c1.466.066,1.933.082,5.665.082s4.2-.016,5.665-.082a10.128,10.128,0,0,0,3.335-.639,7.033,7.033,0,0,0,4.019-4.019,10.1,10.1,0,0,0,.639-3.335c.067-1.466.083-1.933.083-5.665s-.016-4.2-.083-5.665a10.1,10.1,0,0,0-.639-3.335,7.033,7.033,0,0,0-4.019-4.019,10.094,10.094,0,0,0-3.335-.639c-1.466-.066-1.933-.083-5.665-.083" transform="translate(-210.722 -137.101)" fill="#fff"/>
  <path id="Path_1802" data-name="Path 1802" d="M222.853,142.178a7.055,7.055,0,1,0,7.055,7.055,7.055,7.055,0,0,0-7.055-7.055m0,11.635a4.58,4.58,0,1,1,4.58-4.58,4.579,4.579,0,0,1-4.58,4.58" transform="translate(-209.114 -135.493)" fill="#fff"/>
  <path id="Path_1803" data-name="Path 1803" d="M228.771,142.363a1.649,1.649,0,1,1-1.649-1.649,1.649,1.649,0,0,1,1.649,1.649" transform="translate(-206.049 -135.956)" fill="#fff"/>
</svg>
