<svg xmlns="http://www.w3.org/2000/svg" width="54.036" height="54.038" viewBox="0 0 54.036 54.038">
  <g id="Group_1295" data-name="Group 1295" transform="translate(-1613.482 -5744.981)">
    <g id="Group_1268" data-name="Group 1268" transform="translate(1613.482 5744.981)">
      <path id="Path_1797" data-name="Path 1797" d="M62.57,182.542h0a27.019,27.019,0,0,1-27.018-27.018h0A27.019,27.019,0,0,1,62.57,128.505h0a27.019,27.019,0,0,1,27.018,27.019h0A27.019,27.019,0,0,1,62.57,182.542Z" transform="translate(-35.552 -128.505)" fill="#fff"/>
    </g>
    <g id="Group_1258" data-name="Group 1258" transform="translate(1625.763 5757.262)">
      <path id="Path_1801" data-name="Path 1801" d="M225.536,139.77c3.956,0,4.424.016,5.987.087a8.208,8.208,0,0,1,2.75.511,4.9,4.9,0,0,1,2.811,2.811,8.207,8.207,0,0,1,.511,2.75c.071,1.563.087,2.032.087,5.987s-.016,4.424-.087,5.986a8.21,8.21,0,0,1-.511,2.752,4.9,4.9,0,0,1-2.811,2.811,8.18,8.18,0,0,1-2.75.51c-1.563.071-2.03.087-5.987.087s-4.424-.016-5.986-.087a8.191,8.191,0,0,1-2.752-.51,4.907,4.907,0,0,1-2.811-2.811,8.182,8.182,0,0,1-.51-2.752c-.071-1.562-.087-2.03-.087-5.986s.016-4.424.087-5.987a8.18,8.18,0,0,1,.51-2.75,4.907,4.907,0,0,1,2.811-2.811,8.219,8.219,0,0,1,2.752-.511c1.562-.071,2.03-.087,5.986-.087m0-2.669c-4.024,0-4.528.018-6.108.089a10.892,10.892,0,0,0-3.6.689,7.576,7.576,0,0,0-4.332,4.333,10.848,10.848,0,0,0-.689,3.6c-.072,1.58-.089,2.084-.089,6.108s.017,4.528.089,6.108a10.848,10.848,0,0,0,.689,3.6,7.576,7.576,0,0,0,4.332,4.333,10.929,10.929,0,0,0,3.6.689c1.58.071,2.084.088,6.108.088s4.528-.017,6.108-.088a10.921,10.921,0,0,0,3.6-.689,7.584,7.584,0,0,0,4.333-4.333,10.884,10.884,0,0,0,.689-3.6c.072-1.58.089-2.084.089-6.108s-.017-4.528-.089-6.108a10.884,10.884,0,0,0-.689-3.6,7.584,7.584,0,0,0-4.333-4.333,10.884,10.884,0,0,0-3.6-.689c-1.58-.071-2.084-.089-6.108-.089" transform="translate(-210.722 -137.101)" fill="#333"/>
      <path id="Path_1802" data-name="Path 1802" d="M223.405,142.178a7.607,7.607,0,1,0,7.607,7.607,7.608,7.608,0,0,0-7.607-7.607m0,12.546a4.938,4.938,0,1,1,4.938-4.938,4.938,4.938,0,0,1-4.938,4.938" transform="translate(-208.591 -134.969)" fill="#333"/>
      <path id="Path_1803" data-name="Path 1803" d="M229.029,142.492a1.778,1.778,0,1,1-1.778-1.778,1.778,1.778,0,0,1,1.778,1.778" transform="translate(-204.529 -135.584)" fill="#333"/>
    </g>
  </g>
</svg>
