<svg xmlns="http://www.w3.org/2000/svg" width="54.036" height="54.038" viewBox="0 0 54.036 54.038">
  <g id="Group_1293" data-name="Group 1293" transform="translate(-1544.707 -5744.982)">
    <g id="Group_1267" data-name="Group 1267" transform="translate(1544.707 5744.982)">
      <path id="Path_1797" data-name="Path 1797" d="M62.57,182.542h0a27.019,27.019,0,0,1-27.018-27.018h0A27.019,27.019,0,0,1,62.57,128.505h0a27.019,27.019,0,0,1,27.018,27.019h0A27.019,27.019,0,0,1,62.57,182.542Z" transform="translate(-35.552 -128.505)" fill="#fff"/>
    </g>
    <path id="Path_1806" data-name="Path 1806" d="M44.444,160.04a16.721,16.721,0,0,0,9.053,2.654c10.967,0,17.161-9.262,16.789-17.571a11.973,11.973,0,0,0,2.946-3.058,11.779,11.779,0,0,1-3.392.93,5.915,5.915,0,0,0,2.6-3.268,11.85,11.85,0,0,1-3.749,1.434,5.911,5.911,0,0,0-10.066,5.388,16.762,16.762,0,0,1-12.174-6.172,5.914,5.914,0,0,0,1.827,7.887,5.887,5.887,0,0,1-2.676-.74,5.915,5.915,0,0,0,4.738,5.868,5.913,5.913,0,0,1-2.666.1,5.909,5.909,0,0,0,5.517,4.1A11.876,11.876,0,0,1,44.444,160.04Z" transform="translate(1512.887 5622.122)" fill="#333"/>
  </g>
</svg>
