<svg xmlns="http://www.w3.org/2000/svg" width="65" height="65" viewBox="0 0 65 65">
  <g id="Group_1297" data-name="Group 1297" transform="translate(-75 -5617)">
    <circle id="Ellipse_63" data-name="Ellipse 63" cx="32.5" cy="32.5" r="32.5" transform="translate(75 5617)" fill="#fff"/>
    <g id="Group_1296" data-name="Group 1296">
      <g id="_arrow-left" data-name=" arrow-left" transform="translate(380.388 5257) rotate(90)">
        <g id="arrow-left" transform="translate(364 252)">
          <path id="Vector" d="M12.244,27.316,1,16.072a3.425,3.425,0,0,1,0-4.829L12.244,0" transform="translate(13.627 7.036)" fill="none" stroke="#006ca8" stroke-linecap="round" stroke-linejoin="round" stroke-width="3"/>
          <path id="Vector-2" data-name="Vector" d="M0,0H41.388V41.388H0Z" transform="translate(41.388 41.388) rotate(180)" fill="none" opacity="0"/>
        </g>
      </g>
      <g id="_arrow-left-2" data-name=" arrow-left" transform="translate(380.388 5264) rotate(90)">
        <g id="arrow-left-2" data-name="arrow-left" transform="translate(364 252)">
          <path id="Vector-3" data-name="Vector" d="M12.244,27.316,1,16.072a3.425,3.425,0,0,1,0-4.829L12.244,0" transform="translate(13.627 7.036)" fill="none" stroke="#006ca8" stroke-linecap="round" stroke-linejoin="round" stroke-width="3"/>
          <path id="Vector-4" data-name="Vector" d="M0,0H41.388V41.388H0Z" transform="translate(41.388 41.388) rotate(180)" fill="none" opacity="0"/>
        </g>
      </g>
      <g id="_arrow-left-3" data-name=" arrow-left" transform="translate(380.388 5272) rotate(90)">
        <g id="arrow-left-3" data-name="arrow-left" transform="translate(364 252)">
          <path id="Vector-5" data-name="Vector" d="M12.244,27.316,1,16.072a3.425,3.425,0,0,1,0-4.829L12.244,0" transform="translate(13.627 7.036)" fill="none" stroke="#006ca8" stroke-linecap="round" stroke-linejoin="round" stroke-width="3"/>
          <path id="Vector-6" data-name="Vector" d="M0,0H41.388V41.388H0Z" transform="translate(41.388 41.388) rotate(180)" fill="none" opacity="0"/>
        </g>
      </g>
    </g>
  </g>
</svg>
