<svg xmlns="http://www.w3.org/2000/svg" width="619.078" height="623.614" viewBox="0 0 619.078 623.614">
  <path id="Path_1681" data-name="Path 1681" d="M506.5-2392.765s-120.332,24.627-116.974,202.606c3.358,30.782,13.432,150.554,142.16,234.507,20.708,10.634,90.109,57.647,226.112,41.417,20.149-2.8,137.122-25.745,189.173-97.385,14.552-19.589,58.207-74.437,61.565-196.448-1.679-39.178-5.037-137.123-52.05-233.388-19.589-30.223-85.632-137.122-204.284-72.759-20.129,10.481-45.036,40.937-47.188,43.521-9.515,8.955-40.682,43.79-102.807,57.222C548.476-2402.839,506.5-2392.765,506.5-2392.765Z" transform="translate(-389.457 2534.474)" fill="#497a95" opacity="0.4"/>
</svg>
