<svg xmlns="http://www.w3.org/2000/svg" width="54.036" height="54.038" viewBox="0 0 54.036 54.038">
  <g id="Group_1294" data-name="Group 1294" transform="translate(-1482.48 -5744.982)">
    <g id="Group_1261" data-name="Group 1261" transform="translate(1482.48 5744.982)">
      <path id="Path_1797" data-name="Path 1797" d="M62.57,182.542h0a27.019,27.019,0,0,1-27.018-27.018h0A27.019,27.019,0,0,1,62.57,128.505h0a27.019,27.019,0,0,1,27.018,27.019h0A27.019,27.019,0,0,1,62.57,182.542Z" transform="translate(-35.552 -128.505)" fill="#fff"/>
    </g>
    <path id="Path_1807" data-name="Path 1807" d="M163.533,168.7h6.576V152.225h4.59l.488-5.514H170.11V143.57c0-1.3.261-1.814,1.519-1.814h3.559v-5.723h-4.554c-4.894,0-7.1,2.155-7.1,6.281v4.4h-3.421v5.584h3.421Z" transform="translate(1342.24 5620.307)" fill="#333"/>
  </g>
</svg>
