<svg xmlns="http://www.w3.org/2000/svg" width="26.699" height="21.699" viewBox="0 0 26.699 21.699">
  <path id="Path_1806" data-name="Path 1806" d="M44.444,158.534A15.58,15.58,0,0,0,68.411,144.7a11.1,11.1,0,0,0,2.732-2.836,10.925,10.925,0,0,1-3.145.862,5.486,5.486,0,0,0,2.408-3.031,10.99,10.99,0,0,1-3.477,1.33,5.482,5.482,0,0,0-9.335,5A15.546,15.546,0,0,1,46.3,140.3,5.484,5.484,0,0,0,48,147.612a5.46,5.46,0,0,1-2.482-.686,5.486,5.486,0,0,0,4.394,5.442,5.484,5.484,0,0,1-2.473.092,5.48,5.48,0,0,0,5.116,3.805A11.014,11.014,0,0,1,44.444,158.534Z" transform="translate(-44.444 -139.296)" fill="#fff"/>
</svg>
